<?xml version="1.0" standalone="no"?>
<!DOCTYPE svg PUBLIC "-//W3C//DTD SVG 20010904//EN"
 "http://www.w3.org/TR/2001/REC-SVG-20010904/DTD/svg10.dtd">
<svg version="1.0" xmlns="http://www.w3.org/2000/svg"
 width="700.000000pt" height="700.000000pt" viewBox="0 0 700.000000 700.000000"
 preserveAspectRatio="xMidYMid meet">
<metadata>
Created by potrace 1.11, written by Peter Selinger 2001-2013
</metadata>
<g transform="translate(0.000000,700.000000) scale(0.100000,-0.100000)"
fill="#000000" stroke="none">
<path d="M3375 6701 c-96 -27 -155 -62 -225 -131 -103 -103 -151 -225 -145
-368 3 -85 31 -180 72 -245 42 -67 135 -152 201 -182 67 -31 66 -26 40 -128
-5 -21 -11 -50 -13 -65 -2 -15 -56 -286 -119 -602 -63 -316 -117 -586 -120
-600 -2 -14 -11 -56 -19 -95 -9 -38 -17 -83 -20 -100 -3 -16 -8 -41 -11 -55
-3 -14 -8 -36 -10 -50 -2 -14 -7 -36 -10 -50 -3 -14 -8 -36 -10 -50 -2 -14
-11 -59 -20 -100 -8 -41 -18 -90 -21 -109 -3 -19 -7 -37 -9 -40 -2 -3 -7 -28
-11 -56 -3 -27 -8 -51 -10 -53 -2 -2 -12 21 -23 50 -29 78 -222 570 -232 593
-5 11 -55 137 -111 280 -55 143 -107 274 -114 290 -7 17 -32 80 -55 140 -23
61 -48 124 -55 140 -37 87 -175 445 -175 454 0 7 11 16 25 21 39 15 129 84
163 126 167 202 154 491 -29 674 -152 152 -379 188 -576 93 -80 -39 -182 -142
-221 -224 -120 -252 -15 -552 236 -670 37 -18 69 -33 71 -35 6 -5 6 -2024 0
-2024 -4 0 -26 30 -50 68 -23 37 -62 96 -84 132 -23 36 -86 135 -140 220 -53
85 -112 178 -130 205 -30 46 -65 101 -163 255 -19 30 -45 71 -58 90 -12 19
-94 149 -182 287 l-161 253 40 47 c116 140 146 341 77 506 -46 111 -139 210
-242 258 -202 95 -434 51 -583 -109 -179 -192 -176 -493 7 -681 96 -98 213
-150 348 -154 l76 -2 7 -40 c4 -22 15 -87 24 -144 9 -58 18 -112 20 -121 2
-10 6 -35 10 -56 11 -72 15 -99 20 -124 3 -14 7 -38 9 -55 3 -16 12 -73 21
-125 9 -52 18 -108 21 -125 2 -16 7 -46 11 -65 7 -43 8 -46 23 -140 6 -41 19
-113 27 -160 8 -46 16 -98 19 -115 2 -16 6 -41 9 -55 12 -62 15 -78 20 -120 3
-25 8 -52 10 -60 2 -8 7 -33 10 -55 3 -23 7 -50 9 -60 2 -11 7 -40 11 -65 4
-25 9 -54 11 -65 2 -10 6 -35 9 -55 3 -20 7 -47 10 -60 3 -13 7 -42 11 -64 3
-22 7 -43 9 -46 2 -3 6 -43 10 -90 4 -47 9 -92 11 -100 17 -70 23 -91 41 -132
30 -67 86 -138 209 -265 60 -61 114 -117 119 -125 25 -31 72 -104 78 -119 3
-10 36 -61 74 -115 79 -114 80 -122 49 -289 l-19 -100 -65 -65 c-104 -104
-168 -213 -202 -344 -11 -46 -33 -95 -55 -127 -106 -154 -83 -344 58 -478 86
-82 149 -116 237 -125 30 -3 66 -8 79 -11 14 -2 47 -7 75 -10 59 -6 99 -11
176 -21 70 -9 96 -11 195 -19 44 -3 91 -8 105 -10 14 -2 68 -6 120 -10 52 -3
115 -8 140 -10 41 -4 160 -11 340 -20 300 -16 1057 -22 1380 -10 472 16 890
46 1200 85 41 5 107 12 145 16 39 3 72 7 75 9 3 2 29 6 59 10 81 10 91 13 119
31 77 50 141 137 167 228 33 114 16 214 -58 330 -27 42 -32 60 -33 120 -3 86
-6 105 -31 176 -26 72 -64 132 -128 200 -49 52 -52 59 -68 145 -35 186 -35
180 23 265 68 99 90 134 131 204 20 34 88 115 162 190 70 72 144 156 164 186
42 62 80 159 87 222 3 24 8 66 11 93 6 52 21 152 30 195 2 13 7 42 10 65 3 22
10 63 16 90 5 28 11 66 14 85 3 19 7 46 10 60 5 23 31 181 41 243 9 61 15 93
19 117 3 14 7 41 10 60 3 19 7 46 10 60 3 14 7 41 10 60 3 19 7 46 10 60 3 14
7 39 9 55 8 46 16 95 26 155 5 30 12 71 15 90 3 19 10 58 15 85 5 28 12 73 16
100 4 28 8 52 9 55 2 10 27 150 30 172 1 13 8 52 14 88 6 36 13 83 16 105 9
64 8 63 85 64 87 1 135 13 219 54 163 80 275 267 270 447 -3 93 -20 158 -63
236 -99 180 -311 282 -514 248 -289 -49 -473 -331 -401 -613 20 -77 61 -155
110 -207 l29 -30 -28 -45 c-16 -24 -68 -107 -117 -184 -109 -172 -186 -293
-246 -388 -173 -269 -521 -817 -556 -875 -13 -20 -23 -32 -24 -27 0 6 -1 444
-2 974 l-2 963 70 34 c181 86 284 240 290 434 6 147 -38 261 -140 366 -237
243 -643 180 -798 -125 -20 -39 -35 -71 -33 -71 2 0 -2 -24 -9 -52 -14 -61
-11 -185 6 -237 40 -123 144 -252 242 -299 41 -20 47 -27 41 -45 -4 -12 -117
-292 -251 -622 -135 -330 -279 -683 -320 -785 -41 -102 -81 -198 -88 -215 -7
-16 -31 -74 -53 -129 -22 -54 -42 -94 -46 -88 -3 5 -8 27 -11 48 -4 22 -8 47
-11 56 -3 10 -7 30 -10 45 -3 16 -13 71 -24 123 -11 52 -22 106 -24 120 -10
50 -18 88 -52 260 -20 96 -38 186 -40 200 -2 14 -7 36 -10 50 -3 14 -8 36 -11
50 -2 14 -20 104 -39 200 -20 96 -37 186 -40 200 -2 14 -7 36 -10 50 -3 14 -8
36 -10 50 -3 14 -30 149 -60 300 -30 151 -57 286 -60 300 -2 14 -6 34 -9 46
-4 17 6 26 57 50 78 37 183 139 220 214 116 235 38 516 -179 653 -108 68 -267
92 -388 58z"/>
</g>
</svg>
