<?xml version="1.0" encoding="UTF-8" standalone="no"?>
<svg
   enable-background="new 0 0 500 500"
   height="217.69922"
   id="Layer_1"
   version="1.1"
   viewBox="0 0 217.69921 217.69922"
   width="217.69922"
   xml:space="preserve"
   sodipodi:docname="resign.svg"
   inkscape:version="1.1-dev (1b2f004, 2020-08-14)"
   xmlns:inkscape="http://www.inkscape.org/namespaces/inkscape"
   xmlns:sodipodi="http://sodipodi.sourceforge.net/DTD/sodipodi-0.dtd"
   xmlns="http://www.w3.org/2000/svg"
   xmlns:svg="http://www.w3.org/2000/svg"><defs
     id="defs9"><inkscape:path-effect
       effect="fill_between_many"
       method="originald"
       linkedpaths="#path869,0,1"
       id="path-effect899"
       is_visible="true"
       lpeversion="0"
       join="true"
       close="true"
       autoreverse="true"
       applied="false" /></defs><sodipodi:namedview
     pagecolor="#ffffff"
     bordercolor="#666666"
     borderopacity="1"
     objecttolerance="10"
     gridtolerance="10"
     guidetolerance="10"
     inkscape:pageopacity="0"
     inkscape:pageshadow="2"
     inkscape:window-width="1920"
     inkscape:window-height="1017"
     id="namedview7"
     showgrid="false"
     inkscape:pagecheckerboard="true"
     inkscape:zoom="1.72"
     inkscape:cx="-27.906977"
     inkscape:cy="149.12791"
     inkscape:window-x="1912"
     inkscape:window-y="1072"
     inkscape:window-maximized="1"
     inkscape:current-layer="Layer_1"
     height="217.69922px"
     fit-margin-top="0"
     fit-margin-left="0"
     fit-margin-right="0"
     fit-margin-bottom="0" /><path
     d="m 92.14551,8.54297 c -6.199,0 -22.29226,7.65459 -25.44726,9.18359 -0.316,0.154 -0.653,0.24993 -1,0.29493 -1.804,0.234 -3.20118,1.823 -3.20118,3.75 v 92.78124 c 10e-6,1.04901 0.41504,1.99665 1.08204,2.68165 0.595,0.609 1.39212,0.91601 2.20312,0.91601 0.483,0 0.97083,-0.10817 1.42383,-0.32617 4.086,-1.963 19.02145,-8.94141 24.93945,-8.94141 32.889,0 32.93925,18.52149 64.78125,18.52149 6.444,0 23.41522,-7.4328 26.57422,-8.8418 0.29,-0.129 0.5942,-0.21695 0.9082,-0.25195 1.834,-0.204 3.26172,-1.80982 3.26172,-3.75782 V 21.77149 c 0,-1.15501 -0.50101,-2.18982 -1.29101,-2.88282 -0.57,-0.499 -1.28767,-0.74414 -2.01367,-0.74414 -0.45,0 -0.90408,0.0933 -1.33008,0.28125 -4.087,1.808 -19.93338,8.63672 -26.10938,8.63672 -31.842,0 -31.84125,-18.51953 -64.78125,-18.51953 z"
     id="path901"
     style="fill:#ffffff;fill-opacity:1"
     inkscape:original-d="M -140.83105,-141.15039"
     inkscape:path-effect="#path-effect899" /><path
     style="color:#000000;fill:#000000"
     d="m 92.14551,8.54297 c -6.199,0 -22.29226,7.65459 -25.44726,9.18359 -0.316,0.154 -0.653,0.24993 -1,0.29493 -1.804,0.234 -3.20118,1.823 -3.20118,3.75 v 92.78124 c 10e-6,1.04901 0.41504,1.99665 1.08204,2.68165 0.595,0.609 1.39212,0.91601 2.20312,0.91601 0.483,0 0.97083,-0.10817 1.42383,-0.32617 4.086,-1.963 19.02145,-8.94141 24.93945,-8.94141 32.889,0 32.93925,18.52149 64.78125,18.52149 6.444,0 23.41522,-7.4328 26.57422,-8.8418 0.29,-0.129 0.5942,-0.21695 0.9082,-0.25195 1.834,-0.204 3.26172,-1.80982 3.26172,-3.75782 V 21.77149 c 0,-1.15501 -0.50101,-2.18982 -1.29101,-2.88282 -0.57,-0.499 -1.28767,-0.74414 -2.01367,-0.74414 -0.45,0 -0.90408,0.0933 -1.33008,0.28125 -4.087,1.808 -19.93338,8.63672 -26.10938,8.63672 -31.842,0 -31.84125,-18.51953 -64.78125,-18.51953 z m 0.084,11.33789 c 13.713,0.014 19.84542,3.52003 27.60742,7.95703 8.657,4.951 18.4688,10.5625 37.0918,10.5625 2.729,0 7.18929,-0.48783 17.52929,-4.29883 0.752,-0.277 1.49938,-0.55979 2.23438,-0.84179 v 75.96679 c -2.162,0.929 -5.33121,2.24996 -8.65821,3.50196 -8.217,3.092 -10.89853,3.32093 -11.14453,3.33593 -12.931,-0.007 -18.89626,-3.41547 -26.44726,-7.73046 -8.851,-5.05801 -18.88388,-10.78907 -38.29688,-10.78907 -4.047,0 -9.32523,1.3861 -17.11523,4.4961 -0.521,0.208 -1.03878,0.4179 -1.55078,0.6289 V 26.98438 c 2.038,-0.955 5.11751,-2.35565 8.35351,-3.68165 7.459,-3.055 10.06849,-3.38987 10.39649,-3.42187 z"
     id="path869" /><path
     style="color:#000000;fill:#000000"
     d="m 41.00879,0 c -6.065,0 -10.98046,5.07589 -10.98046,11.33789 v 195.02344 c -10e-6,6.262 4.91646,11.33789 10.98046,11.33789 6.065,0 10.98047,-5.07689 10.98047,-11.33789 V 11.33789 C 51.98926,5.07589 47.07379,0 41.00879,0 Z"
     id="path893" /></svg>
